<?xml version="1.0" encoding="UTF-8"?>
<svg xmlns="http://www.w3.org/2000/svg" xmlns:xlink="http://www.w3.org/1999/xlink" width="75pt" height="70pt" viewBox="0 0 75 70" version="1.1">
<g id="surface1">
<path style=" stroke:none;fill-rule:nonzero;fill:rgb(93.333333%,92.941176%,92.941176%);fill-opacity:1;" d="M 65.421875 63.605469 L 12.960938 63.605469 L 12.960938 17.515625 L 18.054688 7.917969 L 65.421875 7.917969 Z M 65.421875 63.605469 "/>
<path style=" stroke:none;fill-rule:nonzero;fill:rgb(93.333333%,18.039216%,21.960784%);fill-opacity:1;" d="M 12.960938 5.027344 L 65.453125 5.027344 L 65.453125 17.515625 L 12.960938 17.515625 Z M 12.960938 5.027344 "/>
<path style=" stroke:none;fill-rule:nonzero;fill:rgb(72.156863%,11.764706%,31.764706%);fill-opacity:1;" d="M 39.726562 5.027344 L 43.996094 17.515625 L 65.421875 17.515625 L 65.421875 5.027344 Z M 39.726562 5.027344 "/>
<path style=" stroke:none;fill-rule:evenodd;fill:rgb(100%,100%,100%);fill-opacity:1;" d="M 15.164062 17.515625 L 15.164062 60.25 L 58.285156 60.25 C 62.320312 60.25 65.59375 56.984375 65.609375 52.949219 L 65.609375 17.554688 Z M 15.164062 17.515625 "/>
<path style=" stroke:none;fill-rule:nonzero;fill:rgb(78.039216%,80%,81.176471%);fill-opacity:1;" d="M 42.730469 24.484375 C 42.730469 25.882812 41.597656 27.015625 40.199219 27.015625 C 38.800781 27.015625 37.667969 25.882812 37.667969 24.484375 C 37.667969 23.085938 38.800781 21.953125 40.199219 21.953125 C 41.597656 21.953125 42.730469 23.085938 42.730469 24.484375 Z M 42.730469 24.484375 "/>
<path style=" stroke:none;fill-rule:evenodd;fill:rgb(78.039216%,80%,81.176471%);fill-opacity:1;" d="M 49.332031 27.027344 C 47.933594 27.027344 46.800781 25.894531 46.800781 24.492188 C 46.800781 23.09375 47.933594 21.960938 49.332031 21.960938 C 50.730469 21.960938 51.863281 23.09375 51.863281 24.492188 C 51.863281 25.894531 50.730469 27.027344 49.332031 27.027344 Z M 49.332031 27.027344 "/>
<path style=" stroke:none;fill-rule:evenodd;fill:rgb(93.333333%,92.941176%,92.941176%);fill-opacity:1;" d="M 21.929688 36.359375 C 20.53125 36.359375 19.398438 35.226562 19.398438 33.824219 C 19.398438 32.425781 20.53125 31.292969 21.929688 31.292969 C 23.328125 31.292969 24.460938 32.425781 24.460938 33.824219 C 24.457031 35.222656 23.328125 36.355469 21.929688 36.359375 Z M 21.929688 36.359375 "/>
<path style=" stroke:none;fill-rule:evenodd;fill:rgb(78.039216%,80%,81.176471%);fill-opacity:1;" d="M 31.0625 36.359375 C 29.664062 36.359375 28.53125 35.226562 28.53125 33.824219 C 28.53125 32.425781 29.664062 31.292969 31.0625 31.292969 C 32.460938 31.292969 33.59375 32.425781 33.59375 33.824219 C 33.589844 35.222656 32.460938 36.355469 31.0625 36.359375 Z M 31.0625 36.359375 "/>
<path style=" stroke:none;fill-rule:evenodd;fill:rgb(93.333333%,92.941176%,92.941176%);fill-opacity:1;" d="M 40.199219 36.359375 C 38.800781 36.359375 37.667969 35.226562 37.667969 33.824219 C 37.667969 32.425781 38.800781 31.292969 40.199219 31.292969 C 41.597656 31.292969 42.730469 32.425781 42.730469 33.824219 C 42.730469 35.222656 41.597656 36.355469 40.199219 36.359375 Z M 40.199219 36.359375 "/>
<path style=" stroke:none;fill-rule:evenodd;fill:rgb(93.333333%,18.039216%,21.960784%);fill-opacity:1;" d="M 49.640625 36.359375 C 48.242188 36.359375 47.109375 35.226562 47.109375 33.824219 C 47.109375 32.425781 48.242188 31.292969 49.640625 31.292969 C 51.039062 31.292969 52.171875 32.425781 52.171875 33.824219 C 52.171875 35.222656 51.039062 36.355469 49.640625 36.359375 Z M 49.640625 36.359375 "/>
<path style=" stroke:none;fill-rule:evenodd;fill:rgb(78.039216%,80%,81.176471%);fill-opacity:1;" d="M 31.0625 45.699219 C 29.660156 45.703125 28.519531 44.566406 28.519531 43.167969 C 28.519531 41.765625 29.652344 40.625 31.054688 40.625 C 32.457031 40.625 33.59375 41.761719 33.59375 43.164062 C 33.59375 44.5625 32.460938 45.699219 31.0625 45.699219 Z M 31.0625 45.699219 "/>
<path style=" stroke:none;fill-rule:evenodd;fill:rgb(93.333333%,92.941176%,92.941176%);fill-opacity:1;" d="M 49.332031 45.699219 C 48.304688 45.703125 47.378906 45.085938 46.984375 44.136719 C 46.589844 43.1875 46.804688 42.09375 47.53125 41.367188 C 48.257812 40.640625 49.351562 40.425781 50.300781 40.820312 C 51.25 41.214844 51.867188 42.140625 51.863281 43.167969 C 51.863281 44.566406 50.730469 45.699219 49.332031 45.699219 Z M 49.332031 45.699219 "/>
<path style=" stroke:none;fill-rule:evenodd;fill:rgb(78.039216%,80%,81.176471%);fill-opacity:1;" d="M 40.324219 45.699219 C 39.296875 45.703125 38.371094 45.085938 37.976562 44.136719 C 37.582031 43.1875 37.796875 42.09375 38.523438 41.367188 C 39.25 40.640625 40.34375 40.425781 41.292969 40.820312 C 42.242188 41.214844 42.859375 42.140625 42.855469 43.167969 C 42.855469 44.566406 41.722656 45.699219 40.324219 45.699219 Z M 40.324219 45.699219 "/>
<path style=" stroke:none;fill-rule:evenodd;fill:rgb(78.039216%,80%,81.176471%);fill-opacity:1;" d="M 31.050781 26.667969 C 29.652344 26.667969 28.519531 25.535156 28.519531 24.136719 C 28.519531 22.738281 29.652344 21.601562 31.050781 21.601562 C 32.449219 21.601562 33.585938 22.738281 33.585938 24.136719 C 33.582031 25.53125 32.449219 26.664062 31.050781 26.667969 Z M 31.050781 26.667969 "/>
<path style=" stroke:none;fill-rule:evenodd;fill:rgb(93.333333%,92.941176%,92.941176%);fill-opacity:1;" d="M 58.769531 26.933594 C 57.367188 26.933594 56.226562 25.800781 56.226562 24.398438 C 56.222656 22.996094 57.359375 21.859375 58.761719 21.855469 C 60.164062 21.855469 61.300781 22.992188 61.300781 24.394531 C 61.300781 25.792969 60.167969 26.929688 58.769531 26.933594 Z M 58.769531 26.933594 "/>
<path style=" stroke:none;fill-rule:evenodd;fill:rgb(93.333333%,92.941176%,92.941176%);fill-opacity:1;" d="M 58.613281 36.613281 C 57.214844 36.613281 56.082031 35.480469 56.082031 34.082031 C 56.082031 32.683594 57.214844 31.546875 58.613281 31.546875 C 60.011719 31.546875 61.148438 32.683594 61.148438 34.082031 C 61.144531 35.476562 60.011719 36.609375 58.613281 36.613281 Z M 58.613281 36.613281 "/>
<path style=" stroke:none;fill-rule:evenodd;fill:rgb(78.039216%,80%,81.176471%);fill-opacity:1;" d="M 58.597656 45.785156 C 57.199219 45.785156 56.066406 44.652344 56.066406 43.253906 C 56.066406 41.855469 57.199219 40.71875 58.597656 40.71875 C 59.996094 40.71875 61.132812 41.855469 61.132812 43.253906 C 61.128906 44.648438 59.996094 45.78125 58.597656 45.785156 Z M 58.597656 45.785156 "/>
<path style=" stroke:none;fill-rule:nonzero;fill:rgb(6.666667%,5.882353%,20%);fill-opacity:1;" d="M 23.296875 11.347656 C 22.90625 11.351562 22.535156 11.195312 22.261719 10.921875 C 21.988281 10.648438 21.832031 10.277344 21.835938 9.886719 L 21.835938 6.746094 C 21.863281 3.632812 24.148438 1 27.226562 0.53125 L 29.28125 0.15625 C 29.710938 0.0742188 30.15625 0.1875 30.492188 0.46875 C 30.828125 0.746094 31.023438 1.164062 31.015625 1.601562 L 31.015625 5.023438 L 28.085938 5.023438 L 28.085938 3.34375 L 27.75 3.402344 C 25.933594 3.734375 24.761719 5.046875 24.761719 6.746094 L 24.761719 8.082031 L 24.914062 8.398438 C 25.15625 8.902344 25.1875 9.484375 25.003906 10.015625 C 24.816406 10.542969 24.425781 10.976562 23.917969 11.21875 C 23.722656 11.304688 23.507812 11.347656 23.296875 11.347656 Z M 23.296875 11.347656 "/>
<path style=" stroke:none;fill-rule:nonzero;fill:rgb(6.666667%,5.882353%,20%);fill-opacity:1;" d="M 53.449219 11.347656 C 53.0625 11.351562 52.691406 11.195312 52.414062 10.921875 C 52.140625 10.648438 51.988281 10.277344 51.988281 9.886719 L 51.988281 6.746094 C 52.019531 3.628906 54.304688 0.996094 57.386719 0.53125 L 59.433594 0.15625 C 59.859375 0.0742188 60.304688 0.191406 60.640625 0.46875 C 60.976562 0.75 61.167969 1.164062 61.160156 1.601562 L 61.160156 5.023438 L 58.242188 5.023438 L 58.242188 3.34375 L 57.910156 3.402344 C 56.089844 3.734375 54.921875 5.046875 54.921875 6.746094 L 54.921875 8.082031 L 55.074219 8.390625 C 55.316406 8.898438 55.347656 9.480469 55.160156 10.011719 C 54.972656 10.539062 54.585938 10.972656 54.078125 11.214844 C 53.878906 11.304688 53.667969 11.351562 53.449219 11.347656 Z M 53.449219 11.347656 "/>
<path style=" stroke:none;fill-rule:nonzero;fill:rgb(78.039216%,80%,81.176471%);fill-opacity:1;" d="M 15.175781 52.429688 L 65.421875 52.429688 L 65.421875 60.320312 L 15.175781 60.320312 Z M 15.175781 52.429688 "/>
<path style=" stroke:none;fill-rule:evenodd;fill:rgb(6.666667%,5.882353%,20%);fill-opacity:1;" d="M 68.9375 59.429688 L 70.816406 63.566406 L 74.996094 61.296875 C 72.671875 56.8125 71.925781 53.503906 71.925781 44.894531 L 71.925781 5.027344 L 65.414062 5.027344 L 65.414062 63.605469 L 68.902344 63.605469 Z M 68.9375 59.429688 "/>
<path style=" stroke:none;fill-rule:nonzero;fill:rgb(6.666667%,5.882353%,20%);fill-opacity:1;" d="M 15.195312 36.808594 L 9.679688 40.816406 L 26.566406 64.054688 L 35.003906 69.867188 L 32.082031 60.046875 Z M 15.195312 36.808594 "/>
<path style=" stroke:none;fill-rule:nonzero;fill:rgb(6.666667%,5.882353%,20%);fill-opacity:1;" d="M 6.167969 24.378906 C 5.027344 22.976562 2.988281 22.707031 1.523438 23.765625 C 0.0585938 24.824219 -0.328125 26.84375 0.648438 28.367188 L 8.734375 39.515625 L 14.21875 35.480469 Z M 6.167969 24.378906 "/>
<path style=" stroke:none;fill-rule:nonzero;fill:rgb(6.666667%,5.882353%,20%);fill-opacity:1;" d="M 15.179688 36.78125 L 10.457031 40.25 L 15.195312 36.808594 Z M 15.179688 36.78125 "/>
<path style=" stroke:none;fill-rule:nonzero;fill:rgb(19.607843%,17.254902%,45.882353%);fill-opacity:1;" d="M 8.625 39.320312 L 14.121094 35.277344 L 15.21875 36.765625 L 9.722656 40.8125 Z M 8.625 39.320312 "/>
</g>
</svg>
