<?xml version="1.0" encoding="UTF-8"?>
<svg xmlns="http://www.w3.org/2000/svg" xmlns:xlink="http://www.w3.org/1999/xlink" width="75pt" height="67pt" viewBox="0 0 75 67" version="1.1">
<g id="surface1">
<path style=" stroke:none;fill-rule:nonzero;fill:rgb(78.039216%,80%,81.176471%);fill-opacity:1;" d="M 54.746094 4.726562 C 54.746094 2.113281 51.472656 0.0234375 47.441406 0.0234375 C 43.410156 0.0234375 40.136719 2.136719 40.136719 4.726562 C 40.136719 4.761719 40.136719 4.800781 40.136719 4.835938 C 40.136719 4.878906 40.136719 4.921875 40.136719 4.964844 L 40.164062 30.9375 C 40.164062 33.289062 43.59375 35.300781 47.441406 35.300781 C 51.472656 35.300781 54.746094 33.183594 54.746094 30.59375 L 54.746094 4.964844 C 54.746094 4.925781 54.746094 4.882812 54.746094 4.84375 C 54.746094 4.808594 54.746094 4.765625 54.746094 4.726562 Z M 54.746094 4.726562 "/>
<path style=" stroke:none;fill-rule:nonzero;fill:rgb(6.666667%,5.882353%,20%);fill-opacity:1;" d="M 54.746094 4.726562 C 54.746094 2.113281 51.472656 0.0234375 47.441406 0.0234375 L 47.441406 35.300781 C 51.472656 35.300781 54.746094 33.183594 54.746094 30.59375 L 54.746094 4.964844 C 54.746094 4.925781 54.746094 4.882812 54.746094 4.84375 C 54.746094 4.808594 54.746094 4.765625 54.746094 4.726562 Z M 54.746094 4.726562 "/>
<path style=" stroke:none;fill-rule:nonzero;fill:rgb(78.039216%,80%,81.176471%);fill-opacity:1;" d="M 54.746094 4.726562 C 54.746094 2.117188 51.476562 0 47.441406 0 C 43.40625 0 40.136719 2.117188 40.136719 4.726562 C 40.136719 7.335938 43.40625 9.453125 47.441406 9.453125 C 51.476562 9.453125 54.746094 7.335938 54.746094 4.726562 Z M 54.746094 4.726562 "/>
<path style=" stroke:none;fill-rule:nonzero;fill:rgb(78.039216%,80%,81.176471%);fill-opacity:1;" d="M 74.992188 12.117188 C 74.992188 9.5 71.71875 7.414062 67.6875 7.414062 C 63.65625 7.414062 60.394531 9.511719 60.394531 12.117188 C 60.394531 12.148438 60.394531 12.1875 60.394531 12.222656 C 60.394531 12.261719 60.394531 12.308594 60.394531 12.355469 L 60.421875 38.328125 C 60.421875 40.679688 63.851562 42.6875 67.691406 42.6875 C 71.730469 42.6875 74.996094 40.570312 74.996094 37.960938 L 74.996094 12.355469 C 75 12.316406 75 12.273438 74.996094 12.234375 C 74.996094 12.195312 74.996094 12.15625 74.992188 12.117188 Z M 74.992188 12.117188 "/>
<path style=" stroke:none;fill-rule:nonzero;fill:rgb(6.666667%,5.882353%,20%);fill-opacity:1;" d="M 74.992188 12.117188 C 74.992188 9.5 71.71875 7.414062 67.6875 7.414062 L 67.6875 42.710938 C 71.726562 42.710938 74.992188 40.59375 74.992188 37.984375 L 74.992188 12.355469 C 74.992188 12.316406 74.992188 12.273438 74.992188 12.234375 C 74.992188 12.195312 74.992188 12.15625 74.992188 12.117188 Z M 74.992188 12.117188 "/>
<path style=" stroke:none;fill-rule:nonzero;fill:rgb(78.039216%,80%,81.176471%);fill-opacity:1;" d="M 74.996094 12.117188 C 74.996094 9.503906 71.726562 7.390625 67.691406 7.390625 C 63.660156 7.390625 60.390625 9.503906 60.390625 12.117188 C 60.390625 14.726562 63.660156 16.84375 67.691406 16.84375 C 71.726562 16.84375 74.996094 14.726562 74.996094 12.117188 Z M 74.996094 12.117188 "/>
<path style=" stroke:none;fill-rule:nonzero;fill:rgb(65.490196%,86.666667%,88.627451%);fill-opacity:1;" d="M 8.832031 45.21875 L 55.304688 45.21875 C 61.269531 45.21875 66.003906 44.832031 67.6875 40.910156 L 67.6875 15.582031 L 66.71875 15.582031 C 64.542969 18.066406 60.367188 18.34375 55.304688 18.34375 L 8.832031 18.34375 Z M 8.832031 45.21875 "/>
<path style=" stroke:none;fill-rule:nonzero;fill:rgb(6.666667%,5.882353%,20%);fill-opacity:1;" d="M 67.6875 44.785156 L 67.6875 40.910156 C 66.003906 44.832031 61.269531 45.21875 55.304688 45.21875 L 8.832031 45.21875 L 8.832031 50.636719 L 13.214844 51.578125 L 8.832031 52.3125 L 8.832031 54.753906 L 67.707031 54.753906 L 67.707031 46.574219 L 65.679688 46.574219 C 66.535156 46.230469 67.246094 45.597656 67.6875 44.785156 Z M 67.6875 44.785156 "/>
<path style=" stroke:none;fill-rule:nonzero;fill:rgb(52.941176%,82.745098%,87.843137%);fill-opacity:1;" d="M 45.582031 49.070312 L 62.234375 51.832031 L 64.78125 49.070312 Z M 45.582031 49.070312 "/>
<path style=" stroke:none;fill-rule:nonzero;fill:rgb(52.941176%,82.745098%,87.843137%);fill-opacity:1;" d="M 34.96875 40.082031 L 36.839844 40.082031 L 37.15625 39 C 39.257812 38.519531 40.863281 36.8125 41.234375 34.679688 C 41.496094 33.019531 40.46875 31.78125 39.726562 30.914062 C 39.160156 30.238281 38.6875 29.640625 38.792969 28.925781 C 38.90625 28.015625 39.65625 27.324219 40.566406 27.285156 C 41.074219 27.265625 41.582031 27.355469 42.054688 27.546875 C 42.164062 27.597656 42.292969 27.597656 42.402344 27.550781 C 42.515625 27.5 42.597656 27.40625 42.636719 27.289062 C 42.636719 27.25 43.175781 25.441406 43.175781 25.441406 C 42.566406 25.171875 41.914062 25.015625 41.25 24.96875 L 41.5625 24.089844 L 39.695312 24.089844 L 39.320312 25.269531 C 37.5 25.84375 36.132812 27.371094 35.765625 29.253906 C 35.503906 30.898438 36.542969 32.078125 37.289062 32.953125 C 37.871094 33.625 38.347656 34.222656 38.222656 34.980469 C 38.105469 35.964844 37.273438 36.707031 36.289062 36.707031 C 35.675781 36.746094 35.0625 36.636719 34.496094 36.390625 C 34.386719 36.324219 34.253906 36.3125 34.136719 36.363281 C 34.019531 36.414062 33.933594 36.519531 33.90625 36.644531 L 33.316406 38.660156 C 33.933594 38.90625 34.582031 39.0625 35.246094 39.132812 Z M 34.96875 40.082031 "/>
<path style=" stroke:none;fill-rule:nonzero;fill:rgb(52.941176%,82.745098%,87.843137%);fill-opacity:1;" d="M 65.535156 39.53125 L 65.535156 19.445312 C 65.535156 19.445312 63.332031 20.65625 55.183594 20.65625 L 11.1875 20.65625 L 11.1875 43.21875 L 55.109375 43.21875 C 64.597656 43.21875 65.46875 40.238281 65.546875 39.617188 Z M 23.820312 42.355469 C 22.238281 40.695312 16.246094 40.511719 16.246094 40.511719 C 16.246094 37.035156 13.507812 35.980469 12.039062 35.664062 L 12.039062 28.207031 C 13.484375 27.890625 16.246094 26.835938 16.246094 23.363281 C 16.246094 23.363281 22.191406 23.179688 23.796875 21.542969 L 33.960938 21.542969 C 29.792969 23.289062 27.070312 27.386719 27.058594 31.933594 C 27.050781 36.480469 29.75 40.589844 33.910156 42.359375 Z M 38.257812 21.738281 C 43.871094 21.738281 48.421875 26.3125 48.421875 31.960938 C 48.421875 37.609375 43.875 42.191406 38.261719 42.191406 C 32.652344 42.1875 28.101562 37.609375 28.105469 31.960938 C 28.113281 26.316406 32.65625 21.746094 38.257812 21.738281 Z M 49.472656 31.964844 C 49.472656 27.402344 46.742188 23.289062 42.558594 21.542969 L 52.917969 21.542969 C 54.523438 23.179688 60.46875 23.363281 60.46875 23.363281 C 60.46875 26.835938 63.207031 27.890625 64.675781 28.207031 L 64.675781 35.671875 C 63.226562 35.984375 60.46875 37.039062 60.46875 40.515625 C 60.46875 40.515625 54.476562 40.699219 52.898438 42.359375 L 42.617188 42.359375 C 46.769531 40.589844 49.464844 36.496094 49.464844 31.960938 Z M 49.472656 31.964844 "/>
<path style=" stroke:none;fill-rule:nonzero;fill:rgb(52.941176%,82.745098%,87.843137%);fill-opacity:1;" d="M 21.777344 34.171875 C 23.125 34.171875 24.214844 33.074219 24.214844 31.71875 C 24.214844 30.367188 23.125 29.269531 21.777344 29.269531 C 20.433594 29.269531 19.34375 30.367188 19.34375 31.71875 C 19.34375 32.371094 19.597656 32.992188 20.054688 33.453125 C 20.511719 33.914062 21.132812 34.171875 21.777344 34.171875 Z M 21.777344 34.171875 "/>
<path style=" stroke:none;fill-rule:nonzero;fill:rgb(52.941176%,82.745098%,87.843137%);fill-opacity:1;" d="M 54.746094 34.171875 C 56.089844 34.171875 57.179688 33.074219 57.179688 31.71875 C 57.179688 30.367188 56.089844 29.269531 54.746094 29.269531 C 53.398438 29.269531 52.308594 30.367188 52.308594 31.71875 C 52.308594 32.371094 52.566406 32.992188 53.023438 33.453125 C 53.480469 33.914062 54.097656 34.171875 54.746094 34.171875 Z M 54.746094 34.171875 "/>
<path style=" stroke:none;fill-rule:nonzero;fill:rgb(52.941176%,82.745098%,87.843137%);fill-opacity:1;" d="M 17.421875 36.023438 L 25.976562 36.023438 L 25.976562 37.5625 L 17.421875 37.5625 Z M 17.421875 36.023438 "/>
<path style=" stroke:none;fill-rule:nonzero;fill:rgb(6.666667%,5.882353%,20%);fill-opacity:1;" d="M 11.179688 12.402344 L 13.722656 11.292969 L 11.246094 10.308594 L 10.011719 7.425781 L 8.839844 10.308594 L 6.433594 11.292969 L 9.035156 12.402344 L 10.144531 15.027344 Z M 11.179688 12.402344 "/>
<path style=" stroke:none;fill-rule:nonzero;fill:rgb(6.666667%,5.882353%,20%);fill-opacity:1;" d="M 3.6875 21.535156 L 5.648438 20.699219 L 3.746094 19.921875 L 2.796875 17.652344 L 1.90625 19.921875 L 0.00390625 20.699219 L 2.023438 21.535156 L 2.855469 23.574219 Z M 3.6875 21.535156 "/>
<path style=" stroke:none;fill-rule:nonzero;fill:rgb(78.039216%,80%,81.176471%);fill-opacity:1;" d="M 33.320312 52.5625 C 33.320312 49.949219 30.050781 47.855469 26.015625 47.855469 C 21.984375 47.855469 18.71875 49.972656 18.71875 52.5625 C 18.71875 52.597656 18.71875 52.636719 18.71875 52.667969 C 18.71875 52.703125 18.71875 52.757812 18.71875 52.804688 L 18.746094 62.636719 C 18.746094 64.988281 22.175781 66.996094 26.015625 66.996094 C 30.054688 66.996094 33.320312 64.882812 33.320312 62.292969 L 33.320312 52.804688 C 33.324219 52.761719 33.324219 52.71875 33.320312 52.679688 C 33.324219 52.640625 33.324219 52.601562 33.320312 52.5625 Z M 33.320312 52.5625 "/>
<path style=" stroke:none;fill-rule:nonzero;fill:rgb(6.666667%,5.882353%,20%);fill-opacity:1;" d="M 33.320312 52.5625 C 33.320312 49.949219 30.050781 47.855469 26.015625 47.855469 L 26.015625 67.019531 C 30.054688 67.019531 33.320312 64.90625 33.320312 62.316406 L 33.320312 52.804688 C 33.324219 52.761719 33.324219 52.71875 33.320312 52.679688 C 33.324219 52.640625 33.324219 52.601562 33.320312 52.5625 Z M 33.320312 52.5625 "/>
<path style=" stroke:none;fill-rule:nonzero;fill:rgb(78.039216%,80%,81.176471%);fill-opacity:1;" d="M 33.324219 52.566406 C 33.324219 49.953125 30.054688 47.839844 26.023438 47.839844 C 21.988281 47.839844 18.71875 49.953125 18.71875 52.566406 C 18.71875 55.175781 21.988281 57.292969 26.023438 57.292969 C 30.054688 57.292969 33.324219 55.175781 33.324219 52.566406 Z M 33.324219 52.566406 "/>
</g>
</svg>
