<svg version="1.0" xmlns="http://www.w3.org/2000/svg" width="933.333" height="933.333" viewBox="0 0 700 700">
  <path d="M344 1.2c-6.3 1.1-9.1 2.3-20.5 9.2-8.6 5.2-38.8 25.1-41.9 27.7-.6.5-7.6 5.8-15.6 11.7-12 8.8-25.6 19.5-37.5 29.3-2.4 2-24.5 21-26.1 22.4-25 22.6-64.4 62-80.1 80.1-4.5 5.2-12.9 14.8-13.8 15.8-2.7 2.8-25.8 31-32 39.1C54 265.4 34.7 293.1 15.4 324 1 347.1-.7 352.5 3.6 361.5c3.5 7.4 10.2 10.8 23.4 12 7.4.6 30 3.2 34.6 4 1.1.2 5.2.6 9 1 8.7.8 15.1 3 16.6 5.8.8 1.5 1.3 10.6 1.4 29.2.2 27.2 1.1 68.4 1.9 85 1.7 35.7 3.3 61.7 5.1 80.5.2 2.5.6 8.1.9 12.5.3 4.4.8 9.1 1 10.5.2 1.4.6 5.9 1 10 .7 8.7 1.3 15.1 2 20 .2 1.9.7 6.2 1 9.5.3 3.3.8 7.3 1 9 .2 1.6.7 5.5 1 8.5.3 3 .7 6.6 1 8 .2 1.4.6 5.2 1 8.5 1.2 13.1 6.5 21.3 14.8 23.3 2.3.6 9.6.9 16.2.7 6.6-.2 23.5-.6 37.5-1 45.3-1.2 48.1-1.3 49.7-2.7 1.3-1 1.4-2.8.9-9.8-.3-4.7-.8-9.6-1-11-.3-1.4-.7-6.8-1.1-12-.3-5.2-.8-11.3-1-13.5-.2-2.2-.7-8.5-1-14-.3-5.5-.8-12.7-1-16-.7-9-1.4-22.5-2-37-.3-7.2-.8-13.7-1-14.5-.3-.8-3.3-3.3-6.7-5.5-7.2-4.6-16.9-13.9-21.5-20.6-6.3-9.2-11.6-22.7-13.1-33.4-1.4-10.5-.6-120.7 1.3-164.5.6-16.2 1.6-35.2 2-41.5.2-3.3.7-10.5 1-16 .8-12.5 1.2-15 3.1-18.7 2.8-5.4 10.9-6.9 16.4-2.9 4.9 3.5 5.4 8.6 3.5 34.6-1.1 13.9-2.8 62.5-4 108.7-.7 25.2-.2 28.8 4.6 34.3 7.8 8.8 24 6.4 28.7-4.4 1.2-2.7 1.6-7.5 1.8-18.6.3-21.8 1.5-69.2 1.9-75 .2-2.8.6-11.5 1-19.5 1.1-22.2 1.9-34.7 3-48.1.8-8.9 4.3-13.5 11-14.3 5.5-.6 9.8 2.1 11.5 7.3 1.2 3.6 1 15.4-.5 33.6-.4 4.3-1.5 27.3-2 39.5-.2 4.1-.6 19-1 33-1.7 59.3-1.6 60.4 3.9 66.4 5.6 6.2 16.4 7.3 22.9 2.4 6.2-4.8 7.5-9.2 7.7-26.3.4-26.4 1.5-63.2 2.5-81 .2-3.3.6-12.1 1-19.5s.8-15.3 1-17.5c.2-2.2.6-9.6 1-16.5.8-13.3 1.9-16.9 6-19.6 3.6-2.3 9.9-2.2 13.2.2 3.1 2.4 5.5 9 4.8 13.8-.4 3.2-1.1 14.3-2 31.8-.3 5.4-.7 14-1 19-1.4 27.4-2.3 77.6-2.5 135.8-.1 44.9-.4 47.9-5.2 60.8-5.2 13.8-16.1 27.6-28 35.3-2.6 1.7-5 4-5.4 5.1-.5 1.8.2 28.3 1.1 41.3.2 2.7.7 9.7 1 15.5.3 5.8.7 12.5 1 15 .3 2.5.7 8.5 1 13.5.4 4.9.8 11 1 13.5.3 2.5.7 7.6 1 11.5 1.3 14.9 1.5 16.8 2.6 18.1.9 1.1 13 1.4 63.2 1.4 34.2.1 68.2.2 75.5.3 7.8 0 13.6-.3 14.2-.9 1.3-1.3 1.7-3.5 2.5-12.2.4-3.7.8-7.8 1-9.2.2-1.4.7-5.9 1-10 .3-4.1.8-9.5 1-12 .3-2.5.7-7.4 1-11 .3-3.6.7-9 1-12 .6-5.9 1-12.3 2-26 .3-4.7.8-11.5 1.1-15.2.5-6.2.3-6.8-1.8-8.2-1.3-.8-5.3-1.7-9.1-2-3.7-.3-10.6-1.3-15.5-2.1-4.8-.8-10.7-1.7-13.2-2-8.4-1.1-14.9-3.6-17.9-7.1-5.5-6.2-6.3-11.8-6.5-43.4-.1-25.1.6-46.5 1.8-52.6.2-1.1.7-5.1 1-8.9.4-3.9.9-7.7 1.1-8.5.2-.8.7-4 1-7 .4-3 1.1-7.5 1.6-10 .6-2.5 1.2-5.9 1.4-7.5.3-1.7.9-5.3 1.5-8 .6-2.8 1.2-5.9 1.4-7 4.1-21.3 18.6-64.9 29.6-89 15.2-33.3 37.4-70.2 48.8-81.2 12.8-12.2 31.3-6.8 34.5 10.2.4 1.6.9 7.3 1.2 12.5.4 5.2.8 11.1 1 13 .3 3.2 1.2 17.7 2.1 34 2.4 45 2.4 158.7-.1 205-.2 3-.6 13.1-1 22.5-1.1 24.8-1.2 27-1.9 38-1.7 26.1-3.2 47.2-4.1 57.5-.2 2.5-.7 7.9-1 12-.7 8.5-1.3 15.4-2 22.2-.3 2.7-.7 7.2-1 10-.3 2.9-.8 7.4-1.1 9.9-.8 7.2.1 7.6 20.1 8.4 9.4.4 25.6.8 36.1 1l19.2.4 5.2-3.3c7.5-4.7 10-9.3 11.5-20.6.3-2.5.7-5.9.9-7.5.3-1.7 1.2-8.6 2-15.5 2.7-20.7 2.8-21.6 4.1-35.2.3-3.2.8-7.7 1-10 .3-2.3.7-7.4 1-11.3.4-3.8.8-8.6 1-10.5.2-1.9.6-8 1-13.5.3-5.5.8-11.1 1-12.5.2-1.4.7-8.4 1.1-15.5.3-7.2.8-14.8.9-17 .2-2.2.6-11 .9-19.5.4-8.5.9-19.8 1.2-25 .3-5.2.7-29.1.9-53 .4-40.6.5-43.6 2.3-46 2.6-3.5 5.6-4.7 13.4-5.5 3.7-.3 7.5-.7 8.5-.9 1-.2 5.4-.7 9.8-1 4.4-.4 8.7-.9 9.5-1.1.8-.2 4.4-.6 8-1 3.6-.3 9.2-.8 12.5-1.1 15.8-1.4 23.5-9.5 22.2-23.3-.5-6.2-1.9-9-13.5-27.6-17.8-28.5-38.9-58.7-61.1-87.5-7.5-9.6-14.8-19.8-16.3-22.6-3.5-6.4-5.5-14.6-6.2-25.4-.3-4.7-1-13-1.6-18.5-.6-5.5-1.3-12.5-1.5-15.5-.3-3-.7-6.6-1-8-.2-1.4-.7-5.7-1-9.5-.4-3.9-.8-7.7-1-8.5-.2-.8-.9-5.6-1.6-10.5-1.8-14-1.9-14.7-2.9-20.5-.5-3-1.2-7.2-1.5-9.4-.2-2.1-.7-4.6-.9-5.5-.3-.9-.8-3.4-1.1-5.6-1.7-12.6-5.2-28.8-7-33.1-3.5-8.5-10.3-12.6-23.5-13.9-3.6-.4-7.2-.9-8.1-1-.9-.2-5.6-.6-10.5-1-4.9-.3-10-.8-11.4-1-4.4-.7-22.4-1.7-26.4-1.6-7.9.4-13.5 4.2-17.2 11.8-2.1 4.4-2.2 6.1-2.3 23.3-.1 17.3-.3 18.6-2.2 20.2-2.6 2.2-4 1.6-12.3-5.1-24.8-20.2-58.7-44.6-88.1-63.4C364.9 2.6 353.7-.5 344 1.2z"/>
</svg>
