<svg height="30" viewBox="0 0 71 30" width="71" xmlns="http://www.w3.org/2000/svg"><g fill="#fff"><path d="m51.4904348 1.40804696c.0627495-.2309545.0159257-.47809819-.1268796-.66969105-.1428054-.19159285-.3655957-.30617332-.6037001-.31048137h-6.5083334l-7.9746376 27.20689656-3.0406522-13.212931 9.2814493-12.74482763c.0637912-.08154336.1094101-.17591454.1337681-.27672413l.1646377-.55862069c.0273279-.09803695.0075065-.20328064-.0535798-.28448745-.0610863-.0812068-.1564159-.12904232-.2576884-.12930566h-6.6138043l-7.1 10.45344826 3.0303623-9.47327584c.0628531-.23138689.0157196-.47899052-.1276729-.67069612s-.3669198-.30595623-.6054793-.3094763h-6.5494927l-5.6594203 19.34482756c.1234783-3.3232758-2.4386957-5.9482758-3.9307246-7.5956896-1.209058-1.3525862-1.9370653-2.30948278-1.8007247-3.37758623.1886545-1.4631435 1.3922528-2.58059542 2.8580073-2.65344828 1.630942-.12931034 2.3332246.375 3.3699275.86379311.1196714.05791161.2504944.08880603.3832971.09051724.1048967.00015098.2088373-.0200457.3061232-.05948276.2216015-.08444552.3923235-.26656835.4630435-.49396552l1.5228985-5.17241379-1.0547101-.49396552-.1594928-.075-.0385869-.02844828c-1.2543701-.53254312-2.6052665-.79676751-3.9667392-.77586206-5.7365942 0-10.95612315 4.13793103-11.81789852 9.20689655-.60195652 3.55344824 1.67467392 6.05172414 3.3159058 7.89051724l.14405797.1603448c1.19619565 1.2931035 2.02452895 2.2887931 1.82902175 3.45-.2701087 1.6267242-1.84702899 2.5681035-3.35706523 2.6793104-1.66695652.1344827-2.70880434-.3336207-4.01304347-.9103449-.22744564-.1332533-.49397849-.1826378-.75373189-.1396551-.25171208.0741563-.45149964.267286-.53507246.5172414l-1.45858696 5.0120689-.18521739.6387931c1.92960948.9107573 4.02731987 1.4058331 6.15847826 1.4534483 4.88768114 0 9.11681164-1.887931 11.62496374-6.4448276l-1.4817391 5.0767241c-.0654478.232064-.0198128.4815299.1234783.675.1427719.1944688.3692576.308797.6096739.3077587h6.5469203l1.6283695-5.5887931 1.991087-2.8862069 1.5434782 7.8594827c.0746582.3554628.3846694.6112451.7460145.6155173h13.7626812z"/><path d="m68.9986232 2.62873661c-1.2853661-1.41130121-3.1052619-2.20911631-5.008587-2.19585643h-10.8403623l-.4630435 1.55189092c-.0428994.13950701-.0251464.29074433.0488768.41637931l.3086957.48620689c.3012625.47719411.3801902 1.06286779.216087 1.60344828l-7.0382609 24.09051722c-.0670043.2305577-.0240116.4793146.1164249.6736361.1404364.1943215.3624786.3122927.6012925.3194674h6.3102536l1.9679348-6.6956897h2.8477174c6.8710507.1008621 10.361884-4.7482758 11.9053623-10.0163793.6353985-2.1543103.9363768-3.70086207.9260869-4.73534483-.0231521-2.30431034-.5865217-4.04224137-1.8984782-5.49827586zm-5.219529 6.13706897c-.072029 1.36551722-.5865217 3.10344832-1.1910507 4.46896552-.8103261 1.8103448-1.5614855 3.1655172-3.6914855 3.4112069h-1.8547464l2.8965942-9.92068966 2.4412681.01551724c.3357861-.0125387.6620491.11361744.9029348.34913793.3910145.39051724.5325.94655172.4964855 1.67586207z"/></g></svg>