<?xml version="1.0" encoding="UTF-8"?>
<svg width="155px" height="30px" viewBox="0 0 155 30" version="1.1" xmlns="http://www.w3.org/2000/svg" xmlns:xlink="http://www.w3.org/1999/xlink">
    <!-- Generator: Sketch 52.2 (67145) - http://www.bohemiancoding.com/sketch -->
    <title>header-logo_Skip-fr-primary-white</title>
    <desc>Created with Sketch.</desc>
    <g id="header-logo_Skip-fr-primary-white" stroke="none" stroke-width="1" fill="none" fill-rule="evenodd">
        <g id="Skip-fr_primary_white" fill="#FEFEFE">
            <path d="M51.3897652,1.38967826 C51.4500261,1.14811304 51.4197652,0.906286957 51.2687217,0.724982609 C51.1179391,0.543678261 50.906113,0.422895652 50.6648087,0.422895652 L44.1691565,0.422895652 L36.2235913,27.4017652 L33.2024609,14.2899391 L42.4471565,1.66150435 C42.5074174,1.57098261 42.5682,1.48046087 42.5682,1.38967826 L42.7189826,0.846026087 C42.7795043,0.63446087 42.6284609,0.422895652 42.4168957,0.422895652 L35.8307217,0.422895652 L28.7614174,10.7854174 L31.7825478,1.38967826 C31.8428087,1.14811304 31.8125478,0.906286957 31.6615043,0.724982609 C31.5107217,0.543678261 31.2988957,0.422895652 31.0575913,0.422895652 L24.5316783,0.422895652 L18.882287,19.6072435 C19.0030696,16.3140261 16.4653304,13.7160261 14.9546348,12.0845478 C13.746287,10.7551565 13.0210696,9.78837391 13.142113,8.73106957 C13.2931565,7.43193913 14.3202,6.2235913 16.0122,6.10254783 C17.6436783,5.98202609 18.3383739,6.46541739 19.3654174,6.9488087 C19.4864609,7.00906957 19.6072435,7.03933043 19.758287,7.03933043 C19.8490696,7.03933043 19.9698522,7.00906957 20.0603739,6.9788087 C20.2719391,6.88828696 20.4532435,6.70698261 20.5137652,6.49541739 L22.0242,1.35941739 L20.9668957,0.876026087 C20.906113,0.846026087 20.876113,0.815765217 20.8158522,0.815765217 L20.7550696,0.785504348 C20.000113,0.453156522 18.6707217,2.60869565e-05 16.7974174,2.60869565e-05 C11.0877652,2.60869565e-05 5.86098261,4.10872174 5.01498261,9.12367826 C4.4108087,12.6587217 6.67672174,15.1359391 8.3082,16.9487217 L8.45924348,17.0997652 C9.63733043,18.3686348 10.4833304,19.3656783 10.2720261,20.5135043 C9.99993913,22.1147217 8.42898261,23.0515043 6.91828696,23.172287 C5.2568087,23.2930696 4.22976522,22.8399391 2.93037391,22.2657652 C2.74933043,22.2055043 2.44724348,22.0242 2.17515652,22.1147217 C1.90333043,22.2055043 1.72202609,22.3868087 1.63150435,22.6283739 L0.181330435,27.5830696 L2.60869565e-05,28.2175043 C2.60869565e-05,28.2175043 2.83985217,29.6676783 6.13306957,29.6676783 C10.9969826,29.6676783 15.2264609,27.7946348 17.7339391,23.2628087 L16.2540261,28.308287 C16.1932435,28.5498522 16.2235043,28.7916783 16.3745478,28.9727217 C16.5255913,29.1540261 16.7371565,29.2750696 16.9789826,29.2750696 L23.5648957,29.2750696 L25.1963739,23.7462 L27.1902,20.876113 L28.7311565,28.6706348 C28.7914174,29.0332435 29.1237652,29.2750696 29.4863739,29.2750696 L43.2023739,29.2750696 L51.3897652,1.38967826 Z" id="Fill-1"></path>
            <path d="M68.8216696,2.59813043 C67.5830609,1.23873913 65.8608,0.45326087 63.8369739,0.423 L53.0213217,0.423 L52.5679304,1.96369565 C52.5376696,2.11473913 52.5376696,2.26604348 52.6284522,2.38656522 L52.9305391,2.86995652 C53.2326261,3.3536087 53.3234087,3.92752174 53.1421043,4.47143478 L46.1328,28.3686522 C46.0725391,28.6102174 46.1028,28.8520435 46.2538435,29.033087 C46.4046261,29.2143913 46.6164522,29.3354348 46.8580174,29.3354348 L53.1421043,29.3354348 L55.1056696,22.6887391 L57.9457565,22.6887391 C64.8037565,22.7795217 68.2477565,17.9758696 69.818713,12.7493478 C70.4531478,10.6042174 70.7552348,9.09352174 70.7552348,8.06647826 C70.6949739,5.77030435 70.1510609,4.04830435 68.8216696,2.59813043 M63.6254087,8.70091304 C63.5651478,10.0603043 63.0514957,11.7825652 62.4470609,13.1419565 C61.6315826,14.9547391 60.8761043,16.2838696 58.7614957,16.5256957 L56.9184522,16.5256957 L59.8185391,6.70682609 L62.2657565,6.73708696 C62.6586261,6.73708696 62.960713,6.85813043 63.1722783,7.09969565 C63.5346261,7.43204348 63.6554087,7.97595652 63.6254087,8.70091304" id="Fill-3" fill-rule="nonzero"></path>
            <path d="M94.0483304,0.423026087 L92.0847652,0.423026087 L89.5467652,9.09354783 C89.2146783,10.2416348 88.7310261,10.6947652 88.0663304,10.6947652 C87.4924174,10.6947652 87.0695478,10.3021565 87.1298087,9.63746087 C87.1298087,9.48641739 87.1903304,9.2445913 87.2205913,9.1238087 L89.6678087,0.785634783 C89.7280696,0.604330435 89.5770261,0.453286957 89.3957217,0.453286957 L87.4924174,0.453286957 L85.0152,8.91224348 C84.9546783,9.15406957 84.8941565,9.45615652 84.8641565,9.69798261 C84.743113,11.5710261 86.0119826,12.6888522 87.7642435,12.6888522 C89.5467652,12.6888522 91.0874609,11.5710261 91.8732,8.97276522 L94.2901565,0.725113043 C94.3201565,0.574069565 94.2296348,0.423026087 94.0483304,0.423026087" id="Fill-5"></path>
            <path d="M82.3262609,4.38065217 C82.2354783,5.83082609 81.147913,10.4531739 78.9425217,10.4531739 L78.2175652,10.4531739 L80.574,2.41682609 L81.2386957,2.41682609 C81.8731304,2.44708696 82.4170435,2.991 82.3262609,4.38065217 M81.8126087,0.423 L78.7914783,0.423 L75.3474783,12.1146522 C75.2872174,12.2659565 75.4382609,12.447 75.5893043,12.447 L78.4593913,12.447 C83.0212174,12.447 84.6224348,6.70682609 84.7734783,4.3203913 C84.8642609,1.72213043 83.4138261,0.423 81.8126087,0.423" id="Fill-7" fill-rule="nonzero"></path>
            <path d="M117.522757,0.120886957 C115.407887,0.120886957 113.262757,1.72210435 112.900148,3.86697391 C112.658583,5.31714783 113.595104,6.34445217 114.2598,7.12993043 C114.773452,7.73410435 115.196322,8.24775652 115.105539,8.91245217 C114.954496,9.90923478 114.139017,10.3626261 113.3838,10.422887 C112.809887,10.4834087 112.447017,10.422887 111.812583,10.1510609 C111.571017,10.0605391 111.359452,10.1208 111.299191,10.3626261 L110.785539,12.144887 C110.785539,12.144887 111.782322,12.5680174 113.081713,12.5680174 C115.407887,12.5680174 117.431974,10.8460174 117.794583,8.64062609 C118.036409,7.19045217 117.129887,6.10262609 116.465191,5.31714783 C115.9518,4.71297391 115.55893,4.19932174 115.649452,3.56488696 C115.770235,2.80966957 116.37467,2.17523478 117.22067,2.11497391 C117.764322,2.08445217 118.066409,2.17523478 118.550061,2.35653913 C118.761365,2.4168 119.003191,2.35653913 119.063452,2.14497391 C119.063452,2.11497391 119.546843,0.513495652 119.546843,0.513495652 C119.546843,0.513495652 118.610322,0.120886957 117.522757,0.120886957" id="Fill-9"></path>
            <path d="M110.39267,5.34743478 L108.278061,5.34743478 L109.154061,2.44708696 L112.235452,2.44708696 L112.719104,0.785608696 C112.779365,0.634565217 112.628322,0.45326087 112.477278,0.45326087 L107.371539,0.45326087 L103.927539,12.144913 C103.867017,12.2959565 103.9878,12.4772609 104.169365,12.4772609 L109.275104,12.4772609 L109.758235,10.8157826 C109.818757,10.6647391 109.667713,10.4834348 109.51667,10.4834348 L106.767626,10.4834348 L107.703887,7.37152174 L109.54693,7.37152174 L109.9398,7.37152174 L110.120843,7.37152174 L110.634496,5.71004348 C110.664757,5.49847826 110.543713,5.34743478 110.39267,5.34743478" id="Fill-11"></path>
            <path d="M126.555887,0.785530435 C126.616148,0.604226087 126.465104,0.422921739 126.284061,0.422921739 L120.543887,0.422921739 L120.090757,2.0844 C120.030235,2.26596522 120.181278,2.44726957 120.362583,2.44726957 L121.873278,2.44726957 L119.033191,12.1448348 C118.97293,12.3264 119.123974,12.5077043 119.305017,12.5077043 L121.268843,12.5077043 L124.229713,2.47726957 L126.102757,2.47726957 L126.555887,0.785530435 Z" id="Fill-13"></path>
            <path d="M131.41993,4.04833043 C131.268887,5.92137391 129.939496,10.6647652 128.278017,10.6647652 C127.583061,10.6647652 127.402017,9.9698087 127.492278,8.91250435 C127.643322,7.0092 128.942713,2.23554783 130.604191,2.23554783 C131.299148,2.2658087 131.510713,2.99102609 131.41993,4.04833043 M130.906278,0.241721739 C127.250974,0.241721739 125.37767,6.10267826 125.166104,8.88224348 C125.015061,11.027113 125.8308,12.719113 128.00593,12.719113 C131.661757,12.719113 133.534539,6.88815652 133.746365,4.1085913 C133.897409,1.96372174 133.08167,0.241721739 130.906278,0.241721739" id="Fill-15" fill-rule="nonzero"></path>
            <path d="M102.628487,3.71598261 C102.537704,4.86406957 101.842748,6.07241739 100.725183,6.07241739 L99.9999652,6.07241739 L101.087791,2.44711304 L101.721965,2.44711304 C102.296139,2.44711304 102.688748,2.80972174 102.628487,3.71598261 M105.014922,3.47441739 C105.135965,1.75215652 104.048139,0.422765217 102.3564,0.422765217 L99.3655304,0.422765217 L95.9215304,12.1146783 C95.8612696,12.2959826 96.0120522,12.4470261 96.1630957,12.4470261 L98.0966609,12.4470261 L99.3957913,8.03624348 L100.21153,8.03624348 L100.21153,12.2054609 C100.21153,12.3565043 100.332313,12.477287 100.483357,12.477287 L102.568226,12.477287 L102.3564,7.64363478 C103.565009,7.22050435 104.863878,5.49850435 105.014922,3.47441739" id="Fill-17" fill-rule="nonzero"></path>
            <path d="M115.468409,25.1057739 L113.534843,25.1057739 L116.163104,19.3656 L115.468409,25.1057739 Z M117.734322,17.2809913 L115.407887,17.2809913 L109.54693,28.9426435 C109.456148,29.1239478 109.57693,29.3352522 109.788757,29.3352522 L111.631539,29.3352522 L112.628322,27.0998609 L115.105539,27.0998609 L114.864235,29.0029043 C114.833713,29.1542087 114.954496,29.3052522 115.136061,29.3052522 L117.009104,29.3052522 L117.975887,17.5528174 C118.036409,17.4320348 117.915365,17.2809913 117.734322,17.2809913 Z" id="Fill-19" fill-rule="nonzero"></path>
            <path d="M116.283887,16.3444696 L117.522757,16.3444696 L117.039365,14.2296 C117.009104,14.0785565 116.858061,13.9577739 116.707017,13.9577739 L114.954496,13.9577739 L116.012061,16.1329043 C116.042322,16.2839478 116.163104,16.3444696 116.283887,16.3444696" id="Fill-21"></path>
            <path d="M152.658626,16.9788 C150.544017,16.9788 148.398887,18.5800174 148.036278,20.7251478 C147.794452,22.1750609 148.730974,23.2023652 149.39567,23.9878435 C149.909322,24.5922783 150.332452,25.1056696 150.24167,25.7703652 C150.090626,26.7674087 149.274887,27.2205391 148.51967,27.2810609 C147.945757,27.3413217 147.583148,27.2810609 146.948452,27.0089739 C146.707148,26.9184522 146.495583,26.978713 146.435061,27.2205391 L145.921409,29.0030609 C145.921409,29.0030609 146.918452,29.4259304 148.217583,29.4259304 C150.544017,29.4259304 152.567843,27.7039304 152.930452,25.4985391 C153.172278,24.0483652 152.265757,22.9608 151.601061,22.1750609 C151.08767,21.5711478 150.6948,21.0574957 150.785322,20.4230609 C150.906365,19.6675826 151.510539,19.0331478 152.356539,18.972887 C152.900452,18.9426261 153.202278,19.0331478 153.68593,19.2144522 C153.897235,19.2749739 154.139061,19.2144522 154.199322,19.002887 C154.199322,18.972887 154.682713,17.3716696 154.682713,17.3716696 C154.682713,17.3716696 153.746191,16.9788 152.658626,16.9788" id="Fill-23"></path>
            <path d="M130.785574,17.2809652 L128.821748,17.2809652 L124.984878,25.6796609 L125.830878,17.5527913 C125.860878,17.4017478 125.710096,17.2507043 125.559052,17.2507043 L123.564965,17.2507043 L122.567922,29.0031391 C122.567922,29.1541826 122.688965,29.2749652 122.840009,29.2749652 L125.166183,29.2749652 L131.027139,17.613313 C131.117661,17.4925304 130.997139,17.2809652 130.785574,17.2809652" id="Fill-25"></path>
            <path d="M135.830765,20.9063739 C135.679722,22.7794174 134.35033,27.5225478 132.688852,27.5225478 C131.993896,27.5225478 131.812852,26.8278522 131.903374,25.7705478 C132.054157,23.8669826 133.353548,19.0935913 135.015026,19.0935913 C135.709983,19.1238522 135.921548,19.8188087 135.830765,20.9063739 M135.317113,17.0997652 C131.661809,17.0997652 129.788504,22.9607217 129.576939,25.740287 C129.425896,27.8851565 130.241635,29.5768957 132.417026,29.5768957 C136.072591,29.5768957 137.945635,23.7462 138.1572,20.9666348 C138.308243,18.8217652 137.492504,17.0997652 135.317113,17.0997652" id="Fill-27" fill-rule="nonzero"></path>
            <path d="M147.371687,17.2809652 L145.407861,17.2809652 L142.870122,25.9517478 C142.537774,27.0998348 142.054383,27.5527043 141.389687,27.5527043 C140.815774,27.5527043 140.392643,27.1600957 140.453165,26.4954 C140.453165,26.3443565 140.513687,26.1027913 140.543687,25.9820087 L142.990904,17.6435739 C143.051165,17.4622696 142.900122,17.3112261 142.719078,17.3112261 L140.815774,17.3112261 L138.338296,25.7704435 C138.278035,26.0120087 138.217513,26.3140957 138.187252,26.5559217 C138.06647,28.4289652 139.335339,29.5467913 141.0876,29.5467913 C142.870122,29.5467913 144.410817,28.4289652 145.196296,25.8307043 L147.613252,17.5830522 C147.643513,17.4320087 147.52273,17.2809652 147.371687,17.2809652" id="Fill-29"></path>
            <path d="M91.1479304,19.0029652 C91.1479304,18.9727043 91.6315826,17.3717478 91.6315826,17.3717478 C91.6315826,17.3717478 90.7553217,16.9486174 89.6677565,16.9486174 C87.552887,16.9486174 85.4077565,18.5498348 85.0451478,20.6947043 C84.8038435,22.1448783 85.7403652,23.1721826 86.4048,23.9576609 C86.9184522,24.5620957 87.3413217,25.075487 87.2508,25.7401826 C87.0994957,26.7372261 86.2837565,27.1903565 85.5288,27.2508783 C84.9546261,27.3111391 84.5920174,27.2508783 83.9578435,26.9787913 C83.7160174,26.8882696 83.5044522,26.9485304 83.4441913,27.1903565 L82.9305391,28.9728783 C82.9305391,28.9728783 83.9273217,29.3957478 85.226713,29.3957478 C87.552887,29.3957478 89.5772348,27.6737478 89.9395826,25.4683565 C90.1814087,24.0181826 89.274887,22.9306174 88.6101913,22.1448783 C88.0968,21.5409652 87.7039304,21.0270522 87.794713,20.3928783 C87.9152348,19.6374 88.5196696,19.0029652 89.3656696,18.9427043 C89.9093217,18.9124435 90.2114087,19.0029652 90.6950609,19.1842696 C90.8461043,19.3050522 91.0876696,19.2447913 91.1479304,19.0029652" id="Fill-31"></path>
            <path d="M108.731139,17.2809652 L106.767574,17.2809652 L104.229574,25.9517478 C103.897226,27.0998348 103.413835,27.5527043 102.749139,27.5527043 C102.175226,27.5527043 101.752357,27.1600957 101.812617,26.4954 C101.812617,26.3443565 101.873139,26.1027913 101.9034,25.9820087 L104.350357,17.6435739 C104.410878,17.4622696 104.259835,17.3112261 104.07853,17.3112261 L102.175226,17.3112261 L99.6977478,25.7704435 C99.637487,26.0120087 99.5769652,26.3140957 99.5469652,26.5559217 C99.4259217,28.4289652 100.694791,29.5467913 102.447052,29.5467913 C104.229574,29.5467913 105.77027,28.4289652 106.555748,25.8307043 L108.972965,17.5830522 C109.002965,17.4320087 108.882183,17.2809652 108.731139,17.2809652" id="Fill-33"></path>
            <path d="M111.057313,19.4561739 L111.238617,19.4561739 C111.057313,19.7885217 110.725226,20.1208696 110.362617,20.4229565 C110.211574,20.5437391 110.181313,20.7553043 110.302096,20.9063478 L110.725226,21.3897391 C111.873052,20.6345217 112.749052,19.425913 112.839835,18.3383478 C112.900096,17.462087 112.356443,16.9786957 111.661487,16.9786957 C110.90627,16.9786957 110.151052,17.6133913 110.09053,18.3988696 C110.06053,19.0935652 110.513661,19.4561739 111.057313,19.4561739" id="Fill-35"></path>
            <path d="M84.4109217,17.2809652 L82.4470957,17.2809652 L79.9093565,25.9517478 C79.5770087,27.0998348 79.0936174,27.5527043 78.4289217,27.5527043 C77.8550087,27.5527043 77.4321391,27.1600957 77.4924,26.4954 C77.4924,26.3443565 77.5529217,26.1027913 77.5829217,25.9820087 L80.0301391,17.6435739 C80.0904,17.4622696 79.9396174,17.3112261 79.758313,17.3112261 L77.8550087,17.3112261 L75.3775304,25.7704435 C75.3172696,26.0120087 75.2567478,26.3140957 75.226487,26.5559217 C75.1057043,28.4289652 76.3745739,29.5467913 78.1268348,29.5467913 C79.9093565,29.5467913 81.4500522,28.4289652 82.2355304,25.8307043 L84.6527478,17.5830522 C84.6827478,17.4320087 84.5619652,17.2809652 84.4109217,17.2809652" id="Fill-37"></path>
            <path d="M75.6796957,17.2809652 L73.7763913,17.2809652 L71.1481304,26.193313 C70.8760435,27.0998348 70.3926522,27.5227043 69.6374348,27.5227043 C69.3656087,27.5227043 69.033,27.4321826 68.7611739,27.2206174 C68.6406522,27.0998348 68.459087,27.1298348 68.3688261,27.2808783 L67.4923043,28.7915739 C67.9456957,29.3052261 68.8216957,29.5770522 69.6676957,29.5770522 C71.6012609,29.5770522 72.719087,28.6102696 73.3835217,26.3443565 L75.9517826,17.6735739 C76.0120435,17.4622696 75.861,17.2809652 75.6796957,17.2809652" id="Fill-39"></path>
            <path d="M95.6494435,26.1631304 L95.5891826,25.407913 C95.5891826,25.2568696 95.4378783,25.1058261 95.2868348,25.1058261 L93.9274435,25.1058261 L94.1390087,27.5225217 C93.4440522,27.5225217 93.2630087,26.8278261 93.3535304,25.7705217 C93.504313,23.8669565 94.8037043,19.0935652 96.4651826,19.0935652 C97.1601391,19.0935652 97.3411826,19.8187826 97.2809217,20.876087 C97.1601391,22.1449565 96.5559652,24.5921739 95.6494435,26.1631304 M99.5770957,20.9668696 C99.7281391,18.8217391 98.9124,17.0997391 96.7372696,17.0997391 C93.0814435,17.0997391 91.2086609,22.9606957 90.9970957,25.7402609 C90.8460522,27.8851304 91.6617913,29.5768696 93.8369217,29.5768696 C93.9879652,29.5768696 94.1390087,29.5768696 94.2900522,29.5468696 L94.2900522,29.697913 C94.2900522,29.8489565 94.4410957,30 94.5921391,30 L95.9817913,30 L95.8912696,28.8821739 C98.2177043,27.2204348 99.4260522,23.142 99.5770957,20.9668696" id="Fill-41" fill-rule="nonzero"></path>
            <polygon id="Fill-43" points="136.948617 0.423026087 136.948617 1.81267826 136.706791 1.81267826 136.706791 0.906417391 136.344443 1.66163478 136.163139 1.66163478 135.800791 0.906417391 135.800791 1.81267826 135.558965 1.81267826 135.558965 0.423026087 135.830791 0.423026087 136.253922 1.29902609 136.676791 0.423026087"></polygon>
            <path d="M137.824722,1.87309565 C137.432113,1.87309565 137.250809,1.66153043 137.250809,1.29918261 L137.250809,1.02709565 C137.250809,0.664747826 137.432113,0.453182609 137.824722,0.453182609 C138.096809,0.453182609 138.277852,0.543704348 138.398635,0.845791304 L138.18733,0.936573913 C138.126809,0.785530435 138.006026,0.694747826 137.854983,0.694747826 C137.643678,0.694747826 137.522635,0.785530435 137.522635,1.02709565 L137.522635,1.32944348 C137.522635,1.54074783 137.643678,1.66153043 137.854983,1.66153043 C138.006026,1.66153043 138.126809,1.60126957 138.18733,1.41996522 L138.428896,1.51048696 C138.308374,1.72205217 138.126809,1.87309565 137.824722,1.87309565" id="Fill-45"></path>
        </g>
    </g>
</svg>