<svg height="30" viewBox="0 0 131 30" width="131" xmlns="http://www.w3.org/2000/svg"><g fill="#fff"><path d="m51.2128125 1.65128205c.0624112-.22898052.0158399-.47401188-.1261955-.66396719s-.3636245-.30355646-.6004451-.30782768h-6.4732422l-7.9316406 26.97435902-3.0242578-13.1 9.2314062-12.63589748c.0634473-.08084642.1088203-.174411.1330469-.27435898l.16375-.55384615c.0271806-.09719902.0074661-.2015432-.0532909-.28205593-.0607569-.08051273-.1555725-.1279394-.256299-.12820048h-6.5781445l-7.0617187 10.36410252 3.0140234-9.39230765c.0625142-.22940922.0156348-.47489658-.1269845-.66496367-.1426194-.19006709-.3649415-.30334122-.6022147-.3068312h-6.5141797l-5.6289063 19.17948722c.1228125-3.2948718-2.4255468-5.8974359-3.9095312-7.5307693-1.2025391-1.3410256-1.9266211-2.2897436-1.7910156-3.34871792.1876373-1.450638 1.3847461-2.55853905 2.8425976-2.63076923 1.6221485-.12820513 2.3206445.37179487 3.3517578.85641026.1190262.05741664.2491439.088047.3812305.08974358.1043311.0001497.2077113-.01987436.3044726-.05897435.2204067-.08372377.3902082-.26428999.4605469-.48974359l1.5146875-5.12820513-1.0490234-.48974359-.1586328-.07435898-.0383789-.02820512c-1.2476069-.52799148-2.5912196-.78995754-3.9453516-.76923077-5.7056641 0-10.89705077 4.1025641-11.75417968 9.12820512-.59871094 3.52307692 1.66564453 6.00000002 3.29802734 7.82307692l.14328125.1589744c1.1897461 1.2820512 2.01361329 2.2692307 1.81916019 3.4205128-.26865238 1.6128205-1.83707034 2.5461538-3.33896488 2.6564102-1.65796874.1333334-2.69419921-.3307692-3.99140624-.9025641-.22621931-.1321144-.49131509-.1810768-.74966797-.1384615-.25035492.0735225-.44906528.2650015-.5321875.5128205l-1.45072266 4.9692308-.18421875.6333333c1.91920556.9029731 4.00560566 1.3938174 6.12527344 1.4410257 4.86132816 0 9.06765626-1.8717949 11.56228516-6.3897436l-1.47375 5.0333333c-.0650949.2300805-.019706.4774143.1228125.6692308.1420021.1928066.3672667.3061577.6063867.3051282h6.5116211l1.6195899-5.5410257 1.9803515-2.8615384 1.5351563 7.7923077c.0742556.3524246.3825953.6060207.7419921.6102564h13.6884766z"/><path d="m68.6266016 2.86153846c-1.2784358-1.39923881-3.0885192-2.19023498-4.9815821-2.17708843h-10.781914l-.4605469 1.53862689c-.0426682.13831465-.0250108.28825935.0486133.41282052l.3070312.48205128c.2996382.47311552.3781403 1.05378345.2149219 1.58974359l-7.0003125 23.88461539c-.0666431.2285871-.0238821.4752179.1157972.6678785.1396792.1926606.3605242.3096236.5980505.3167369h6.2762304l1.9573242-6.6384616h2.8323633c6.8340039.1 10.3060157-4.7076923 11.8411719-9.9307692.6319727-2.1358974.9313281-3.66923076.9210938-4.69487179-.0230274-2.28461538-.5833594-4.0076923-1.8882422-5.45128205zm-5.1913868 6.08461539c-.0716406 1.35384615-.5833593 3.07692305-1.1846289 4.43076925-.805957 1.7948718-1.5530664 3.1384615-3.671582 3.3820513h-1.8447461l2.8809766-9.83589748 2.4281054.01538462c.3339757-.01243153.6584795.11264635.8980665.34615384.3889062.38717949.5296289.93846154.4938085 1.66153847z"/><path d="m77.7300781 12.7769231h-4.2242383l-4.8101562 16.3205128c-.031451.1086621-.0099434.2258243.0580367.3161551.0679802.0903307.1744764.1432574.2873735.1428193l3.9760546.0179487c6.3529883 0 8.5661719-7.9846154 8.7683008-11.3333334.2200391-3.676923-1.8268359-5.4641025-4.0553711-5.4641025zm.7317578 5.5153846c-.1202539 2.0128205-1.6477343 8.4871795-4.7078125 8.4871795h-1.0106445l3.2826758-11.2076923h.913418c.8827148 0 1.6400586.7794872 1.5223632 2.7205128z"/><path d="m86.6570117 1.33589744c.0194585-.06540177.0068361-.13617547-.0340242-.19077308-.0408602-.05459761-.1051227-.08655786-.1732219-.08615386h-1.5351562l-1.1053125 3.79743976h-1.8600977l1.0234375-3.52051282c.0183244-.06532208.005245-.13547051-.0353801-.18975393s-.1041607-.08650821-.171866-.08717301h-1.5351562l-2.6814063 9.1410295c-.0184822.0650595-.0053917.1350411.035349.1889749.0407406.0539338.1043979.0855534.1718971.0853848h1.5351563l1.1871875-4.06410329h1.8600976l-1.1027539 3.78974359c-.0184822.0650595-.0053917.1350411.035349.1889749.0407406.0539338.1043979.0855534.1718971.0853848h1.5351563z"/><path d="m92.1886914 1.05384168h-3.9555859l-.0460547.15385063-2.6225586 8.97435899c-.0193298.0649692-.0070075.1352674.0332597.1897451.0402671.0544777.103779.086776.1714278.087178h3.9555859l.3786719-1.28205132c.0235772-.06533156.0125554-.13818273-.0292864-.19357419s-.1088165-.08579462-.1779597-.08078479h-2.1364258l.7266406-2.44358974h1.9342969l.3837891-1.28205128c.0194585-.06540177.006836-.13617547-.0340242-.19077308s-.1051227-.08655786-.1732219-.08615h-1.6605274l.6703516-2.27179487h2.4127539l.3709961-1.28205128c.0253515-.06644097.0163344-.14114103-.0240947-.19960735s-.1070557-.09315804-.1780342-.09270482z"/><path d="m79.759043 2.62051282.3658789-1.28205128c.0174877-.06540425.0036489-.13523894-.0374499-.18898335s-.1047888-.08537563-.1723548-.08537563h-4.4877735l-.3633203 1.28205129c-.0194584.06540176-.006836.13617546.0340242.19077307.0408603.05459761.1051228.08655786.1732219.08615h1.1820703l-2.210625 7.57179488c-.0194584.0654018-.006836.1361755.0340242.1907731.0408603.0545976.1051228.0865578.1732219.0861538h1.5351563l2.3027344-7.84872178z"/><path d="m88.5606055 12.7769204h-2.7863086l-4.7845703 16.3384642c-.0304426.1090121-.0081785.2260207.0601574.3161564.0683359.0901358.174854.1429923.2878113.1428184h2.7863086l4.7820117-16.338462c.031451-.108662.0099434-.2258243-.0580367-.316155-.0679802-.0903308-.1744764-.1432574-.2873734-.142822z"/><path d="m111.339766 13.2358974c.032476-.1083054.011735-.2256297-.055892-.3161623-.067628-.0905325-.174115-.1435285-.28696-.1428192h-2.788867l-1.977793 6.7743662h-3.326172l1.844746-6.3153847c.031325-.1082286.010119-.2249174-.057269-.3151295-.067388-.0902122-.173136-.1434762-.285582-.143852h-2.788868l-4.7871285 16.3384687c-.0324762.1083055-.0117353.2256297.0558921.3161623s.1741148.1435285.2869594.1428192h2.7863086l2.1287504-7.2538533h3.326171l-1.977792 6.7948718c-.031326.1082287-.01012.2249175.057268.3151296s.173136.1434762.285583.1438519h2.788867z"/><path d="m121.052187 12.7769231h-7.09498l-4.787129 16.3384615c-.031325.1082287-.010119.2249175.057269.3151296s.173136.1434762.285583.1438448h7.092422l.675468-2.3358975c.031451-.108662.009944-.2258243-.058036-.316155-.067981-.0903308-.174477-.1432574-.287374-.1428193h-3.83789l1.299765-4.3589744h3.379902l.693379-2.3358974c.0323-.1085696.011562-.2260483-.055944-.3169238s-.173858-.1444819-.286907-.1446147h-2.91168l1.199981-4.051282h4.303554l.67291-2.3384616c.031367-.1075324.010455-.223587-.056459-.3133341-.066914-.089747-.172042-.1427405-.283834-.1430761z"/><path d="m93.2530664 17.3333333c.1655382-1.1017556 1.0732487-1.9399697 2.1824805-2.0153846.62975-.0339637 1.2589303.0765334 1.8396289.3230769.1336126.0630512.2874921.0670327.4241732.0109751.1366812-.0560575.2436243-.1670112.2947916-.3058469.0153516-.0487179.667793-2.2692307.667793-2.2692307-.8675532-.3742383-1.8008956-.5712463-2.7453711-.5794872-2.9551758 0-5.9308203 2.2128205-6.4118359 5.2358974-.3223829 2.0153846.9594726 3.4538462 1.8754492 4.5384616.724082.8307692 1.3074414 1.5615384 1.1590429 2.4923077-.2251562 1.4102564-1.3279101 2.0282051-2.3871679 2.1179487-.757167.0820979-1.5220271-.0530634-2.2055078-.3897436-.1352291-.0800173-.3003739-.0908035-.4448226-.0290529-.1444486.0617507-.2509763.1886746-.2869352.3418734l-.7343165 2.4769231c1.0260523.3929681 2.1151658.5945751 3.2135938.5948718 3.2417383 0 6.0638672-2.3897436 6.5525586-5.4615385.3223828-2.051282-.9441211-3.5538461-1.8600977-4.6384615-.6882617-.8307693-1.2716211-1.5717949-1.133457-2.4435898z"/><path d="m125.514375 17.3333333c.16415-1.1044932 1.075588-1.9441798 2.187598-2.0153846.627199-.0329666 1.253663.0775142 1.831953.3230769.134278.0628175.28874.0660848.425543.0090013.136804-.0570834.243309-.1692436.293422-.3090013.015351-.0487179.667793-2.2692307.667793-2.2692307-.864743-.3711455-1.79446-.5663794-2.735137-.574359-2.955176 0-5.93082 2.2128205-6.411836 5.2358974-.319824 2.0153846.959473 3.4538462 1.875449 4.5384616.724082.8307692 1.307442 1.5615384 1.159043 2.4923077-.225156 1.4102564-1.32791 2.0282051-2.387168 2.1179487-.757167.0820979-1.522027-.0530634-2.205508-.3897436-.135229-.0800173-.300374-.0908035-.444822-.0290529-.144449.0617507-.250976.1886746-.286935.3418734l-.724083 2.4769231c1.026162.3925787 2.115203.5941723 3.213594.5948718 3.241739 0 6.063867-2.3897436 6.552559-5.4615385.324941-2.051282-.944121-3.5538461-1.860098-4.6384615-.70873-.8307693-1.294648-1.5717949-1.151367-2.4435898z"/></g></svg>